<!DOCTYPE svg PUBLIC "-//W3C//DTD SVG 1.1//EN" "http://www.w3.org/Graphics/SVG/1.1/DTD/svg11.dtd">

<!-- Uploaded to: SVG Repo, www.svgrepo.com, Transformed by: SVG Repo Mixer Tools -->
<svg fill="#fff" height="20px" width="20px" version="1.1" id="Layer_1" xmlns="http://www.w3.org/2000/svg" xmlns:xlink="http://www.w3.org/1999/xlink" viewBox="0 0 330 330" xml:space="preserve" stroke="#fff">

<g id="SVGRepo_bgCarrier" stroke-width="0"/>

<g id="SVGRepo_tracerCarrier" stroke-linecap="round" stroke-linejoin="round"/>

<g id="SVGRepo_iconCarrier"> <g id="XMLID_467_"> <path id="XMLID_468_" d="M15,60h107.58c6.192,17.459,22.865,30,42.42,30s36.227-12.541,42.42-30H315c8.284,0,15-6.716,15-15 s-6.716-15-15-15H207.42C201.227,12.542,184.555,0,165,0s-36.227,12.542-42.42,30H15C6.716,30,0,36.716,0,45S6.716,60,15,60z M165,30c8.271,0,15,6.729,15,15s-6.729,15-15,15s-15-6.729-15-15S156.729,30,165,30z"/> <path id="XMLID_472_" d="M315,150h-77.58c-6.192-17.458-22.865-30-42.42-30s-36.227,12.542-42.42,30H15c-8.284,0-15,6.716-15,15 s6.716,15,15,15h137.58c6.192,17.458,22.865,30,42.42,30s36.227-12.542,42.42-30H315c8.284,0,15-6.716,15-15S323.284,150,315,150z M195,180c-8.271,0-15-6.729-15-15s6.729-15,15-15s15,6.729,15,15S203.271,180,195,180z"/> <path id="XMLID_475_" d="M315,270H177.42c-6.192-17.458-22.865-30-42.42-30s-36.228,12.542-42.42,30H15c-8.284,0-15,6.716-15,15 s6.716,15,15,15h77.58c6.192,17.458,22.865,30,42.42,30s36.227-12.542,42.42-30H315c8.284,0,15-6.716,15-15S323.284,270,315,270z M135,300c-8.271,0-15-6.729-15-15s6.729-15,15-15s15,6.729,15,15S143.271,300,135,300z"/> </g> </g>

</svg>