<svg width="20" height="20" viewBox="0 0 26 25" fill="none" xmlns="http://www.w3.org/2000/svg">
<path fill-rule="evenodd" clip-rule="evenodd" d="M5.61096 24.0533C2.64258 24.087 0.173157 21.7792 0.00598145 18.8153L0 18.5643V5.49842C0.0228882 2.53089 2.38116 0.109256 5.34698 0.00744955L5.604 0.00036947H11.452C14.4208 -0.0335661 16.8908 2.2743 17.058 5.23865L17.063 6.59241C17.0481 7.21302 16.5622 7.71961 15.9427 7.76062C15.3232 7.80188 14.7747 7.36341 14.678 6.75013L14.668 6.61145V5.49842C14.6515 3.8136 13.324 2.43396 11.6411 2.35242H11.441H5.60907C3.92322 2.33704 2.51678 3.6366 2.39899 5.31824L2.39404 5.5116V18.5626C2.41113 20.247 3.73859 21.6259 5.42096 21.7067L5.62103 21.7128H11.4641C13.1436 21.7289 14.5457 20.4352 14.6641 18.7596L14.6691 17.4679C14.6817 16.8453 15.1686 16.3358 15.79 16.2948C16.4116 16.254 16.961 16.6954 17.0551 17.3112L17.064 17.4498V18.5758C17.0387 21.5331 14.6906 23.9469 11.735 24.0538L11.47 24.0599L5.61096 24.0533ZM19.6479 16.2775C19.2319 15.8683 19.184 15.214 19.5359 14.7487L19.6359 14.6344L21.1039 13.2003H9.57996C8.95709 13.2103 8.43518 12.7316 8.39185 12.11C8.34845 11.4887 8.79871 10.9418 9.41693 10.8654L9.55994 10.8544H21.105L19.651 9.43933C19.2338 9.03186 19.1829 8.3783 19.532 7.91126L19.632 7.79627C20.0555 7.37586 20.7195 7.31922 21.2079 7.66223L21.3259 7.76233L24.8359 11.1832C25.0709 11.4017 25.2039 11.7084 25.2029 12.0292C25.2012 12.3532 25.0654 12.6617 24.8279 12.8822L21.3419 16.2821C20.8699 16.7394 20.1199 16.7394 19.6479 16.2821V16.2775Z" fill="#809FB8"/>
</svg>
