<svg width="20" height="20" viewBox="0 0 21 29" fill="none" xmlns="http://www.w3.org/2000/svg">
<path fill-rule="evenodd" clip-rule="evenodd" d="M13.0096 28.0141H12.9396H7.00959C5.81797 28.0426 4.62571 28.0092 3.4376 27.914C2.54883 27.9389 1.68891 27.5971 1.05991 26.9687C0.430915 26.3402 0.0883242 25.4806 0.112586 24.5917C0.0163027 23.4018 -0.0180601 22.2077 0.00961938 21.0141L0.00958887 7.01406C-0.0184263 5.82217 0.01496 4.63003 0.109564 3.4418C0.0842654 2.55313 0.426093 1.69302 1.0546 1.06436C1.68311 0.43545 2.54285 0.0931653 3.43159 0.118068C4.62159 0.0208996 5.81589 -0.0137684 7.00956 0.0140637H12.8496C12.8973 0.0069836 12.9454 0.00234493 12.9936 0.000391806V0.000147666C13.0641 -0.00107304 13.1345 0.00527462 13.2036 0.0191906C13.9747 -0.0467273 14.7503 0.0755871 15.4636 0.376124C17.0681 1.54653 18.4801 2.96035 19.6486 4.56607C19.9475 5.27725 20.0693 6.05044 20.0036 6.819C20.0277 6.93838 20.0297 7.06094 20.0096 7.18106V21.0141C20.0378 22.2067 20.0044 23.3998 19.9096 24.589C19.9338 25.4777 19.5913 26.3373 18.9623 26.9657C18.3333 27.5941 17.4734 27.9359 16.5846 27.9108C15.4681 28.0028 14.3476 28.0365 13.2277 28.0111L13.0096 28.0141ZM3.6576 2.10195C3.22465 2.02359 2.78086 2.16275 2.46985 2.47378C2.15885 2.78506 2.02015 3.22891 2.09864 3.66201C2.01459 4.40811 2.00861 5.51699 2.00861 7.01211V21.0121C2.00861 22.5121 2.01462 23.6181 2.09861 24.3651C2.02076 24.7982 2.16001 25.2418 2.47135 25.5529C2.78269 25.8639 3.2266 26.0026 3.65958 25.9242C4.40562 26.0082 5.51462 26.0143 7.00962 26.0143H13.0796C14.5336 26.0143 15.6266 26.0072 16.3586 25.9252C16.7915 26.0031 17.2351 25.8642 17.5463 25.5534C17.8575 25.2426 17.9969 24.7992 17.9196 24.3661C18.0046 23.62 18.0096 22.5111 18.0096 21.0141V8.01406H13.0096C12.4573 8.01406 12.0096 7.56631 12.0096 7.01406V2.01406H7.00962C5.50959 2.01406 4.4036 2.01406 3.6576 2.10318V2.10195ZM14.0096 6.01406H17.9856C17.98 5.82339 17.9368 5.63565 17.8586 5.46133C16.8848 4.24429 15.7805 3.1376 14.5656 2.16104C14.3903 2.08316 14.2014 2.04043 14.0096 2.03506L14.0096 6.01406ZM15.0096 23.0141H4.98157C4.42936 23.0063 3.98795 22.5524 3.99558 22.0001C4.00321 21.4479 4.45704 21.0065 5.00925 21.0141H15.0386C15.3958 21.0165 15.7246 21.2094 15.9011 21.5202C16.0776 21.8307 16.0749 22.2121 15.8941 22.5202C15.7133 22.8283 15.3818 23.0165 15.0245 23.0141H15.0096ZM15.0096 19.0141H4.98157C4.42936 19.0063 3.98795 18.5524 3.99558 18.0001C4.00321 17.4479 4.45704 17.0065 5.00925 17.0141H15.0386C15.3958 17.0167 15.7246 17.2099 15.9009 17.5207C16.0772 17.8312 16.0743 18.2126 15.8933 18.5207C15.7124 18.8285 15.3808 19.0167 15.0236 19.0141H15.0096ZM4.98157 15.0141C4.42936 15.0063 3.98795 14.5524 3.99558 14.0001C4.00321 13.4479 4.45704 13.0065 5.00925 13.0141H15.0386C15.3958 13.0192 15.7232 13.2147 15.8973 13.5265C16.0715 13.8385 16.066 14.2199 15.8829 14.5265C15.6997 14.8334 15.3669 15.0192 15.0096 15.0141H4.98157V15.0141Z" fill="white"/>
</svg>
